<?xml version="1.0" encoding="UTF-8"?>
<svg id="Livello_1" data-name="Livello 1" xmlns="http://www.w3.org/2000/svg" viewBox="0 0 4787.06 1615.76">
  <defs>
    <style>
      .cls-1 {
        fill: #2d2d2d;
      }
    </style>
  </defs>
  <path class="cls-1" d="M744.17,1615.7h-221.97c-77.05,0-79.56-58.62-140.73-196.09L0,544.44l218.62-.02c56.16,0,106.65,64.35,127.37,116.56l343.91,802.15c91.93-301.55,66.31-373.27,55.62-403.25-22.16-61.94-77.64-114.57-80.36-184.44-2.32-50.23-.84-73.69-.84-128.72,0-14.99,.04-33.2,.04-35.19,0-75.67,61.32-167.1,137-167.1h197.62c-86.2,337.48-168.6,733.77-254.81,1071.26Z"/>
  <path class="cls-1" d="M1976.74,947.21v265.74c0,182.9-124.3,345.71-302.9,385.24-49.89,11.02-107.93,17.52-175.47,17.52s-125.57-6.48-175.44-17.52c-178.6-39.51-302.91-202.32-302.91-385.24v-265.74c0-182.9,124.31-345.68,302.91-385.23,49.87-11.04,107.89-17.54,175.44-17.54s125.59,6.5,175.47,17.54c178.6,39.52,302.9,202.32,302.9,385.23Zm-311.13-178.42c0-100.86-74.88-182.61-167.24-182.61s-167.24,81.75-167.24,182.61v620.49c0,100.86,74.88,182.62,167.24,182.62s167.24-81.76,167.24-182.62V768.78Z"/>
  <path class="cls-1" d="M3080.05,1581.48c-73.44-10.07-66.78-94.4-66.78-94.4V847.42c0-253.14-304.16-303.34-475.24-303.34-494.58,0-480.93,303.34-480.93,303.34-6.82,132.42,115.52,172.87,213.01,136.64,98.46-36.56,118.45-150.62,49.07-223.24-35.58-37.04-50.85-52.48-30.55-87.25,31.85-53.78,119.42-95.38,249.4-86.28,110.81,7.64,164.91,68.24,164.91,189.77,0,25.84,.65,49.07,.65,70.35l-.16,1.46-.49,20.96c-4.55,92.61-40.13,143.96-267.76,196.6-313.42,72.3-378.08,231.04-378.08,335.67v90.99h0c-.15,67.7,54.69,122.67,122.4,122.67h277.46c80.59,0,166.86-46.8,245.99-138.59v24.21c0,48.09,65.15,114.38,146.23,114.38h254.27v-16.08c0-8.45-9.42-16.25-23.4-18.2Zm-377.11-187.5c-19.66,71.33-127.38,133.07-242.41,86.93-114.87-46.14-96.19-248.59,62.23-341.69,151.59-89.04,180.19-130.96,180.19-130.96v385.72Z"/>
  <path class="cls-1" d="M3746.12,544.44v26.35c0,8.54-8.81,16.35-21.9,18.28h-181.17c-47.2,2.48-53.71,70.02-54.42,87.28v809.55s-6.38,84.14,63.38,94.14c13.31,1.93,22.31,9.7,22.31,18.22v15.91h-263.36c-77.05,0-139.08-27.18-139.08-193.89V677.61c-.67-15.6-7.74-80.17-62.8-88.26-13.09-1.9-21.9-9.74-21.9-18.27v-26.33h84.7V136.48c0-75.39,61.34-136.48,137.01-136.48h179.75V544.44h257.47Z"/>
  <path class="cls-1" d="M4787.06,1599.74v16h-258.68c-75.68,0-137.06-39.01-137.06-87.13V997.04c0-53.03-2.03-176.95-20.91-226.49-7.77-20.41-18.37-40.13-34.08-55.27-36.83-35.53-97.44-38.88-143.09-15.66-45.6,23.22-83.27,88.43-93.06,138.68-6.87,35.28-8.79,78.61-9.35,125.59v550.34s-5.97,57.2,63.8,67.22c13.31,1.9,22.29,9.74,22.29,18.27v15.99h-263.32c-77.06,0-139.53-27.18-139.53-194.52V132.28c0-75.67,61.33-130.92,136.99-130.92h179.77V724.58c6.06-10.38,12.55-20.56,19.55-30.46,52.47-73.83,142.2-130.19,235.57-145.18,93.39-14.96,195.53,14.15,258.01,80.82,47.62,50.76,69.85,118.14,82.05,184.71,12.06,65.78,16.49,77.05,16.49,182.57v517.2s-5.85,57.2,62.67,67.22c13.07,1.92,21.91,9.73,21.88,18.27Z"/>
</svg>